<?xml version="1.0" encoding="UTF-8"?>
<svg xmlns="http://www.w3.org/2000/svg" version="1.1" viewBox="0 0 330 235">
  <defs>
    <style>
      .cls-1, .cls-2 {
        fill: #3b4f6f;
      }

      .cls-3 {
        fill: #e5f2fa;
      }

      .cls-4 {
        fill: #324666;
      }

      .cls-5 {
        fill: #5e3e14;
      }

      .cls-6 {
        fill: #417ea6;
      }

      .cls-6, .cls-7 {
        opacity: .5;
      }

      .cls-8 {
        fill: #bcdcf1;
      }

      .cls-9 {
        fill: #3947ce;
      }

      .cls-10 {
        fill: #feedd6;
      }

      .cls-2, .cls-11 {
        opacity: .1;
      }

      .cls-12 {
        fill: #fff;
      }

      .cls-13 {
        fill: #e9f4fc;
      }

      .cls-14 {
        fill: none;
      }

      .cls-15 {
        fill: #ffb998;
      }

      .cls-16 {
        fill: #d8dee6;
      }

      .cls-17 {
        opacity: 0;
      }

      .cls-17, .cls-18 {
        fill: #57a8dd;
      }

      .cls-11 {
        fill: #005d92;
      }

      .cls-19 {
        fill: #9acbeb;
      }

      .cls-20 {
        fill: #40464f;
      }

      .cls-21 {
        fill: #e3f1fb;
      }

      .cls-7 {
        fill: #fcca85;
      }

      .cls-22 {
        fill: #eef6fc;
      }

      .cls-23 {
        fill: #2a2a3b;
      }

      .cls-24 {
        fill: #d8ebf8;
      }

      .cls-25 {
        fill: #2c3b53;
      }

      .cls-26 {
        fill: #1e2838;
      }

      .cls-27 {
        fill: #faa634;
      }

      .cls-28 {
        fill: #7b85e7;
      }
    </style>
  </defs>
  <!-- Generator: Adobe Illustrator 28.7.5, SVG Export Plug-In . SVG Version: 1.2.0 Build 176)  -->
  <g>
    <g id="_레이어_1" data-name="레이어_1">
      <g>
        <g>
          <g>
            <path class="cls-25" d="M227.6,219c-2.4-.1-6.4-.4-8.3-.9-7.9-1.9-14.7-11-14.7-19.1v-47.2h-54.1v47.2c0,8.1-6.8,17.1-14.7,19.1-1.9.5-5.9.8-8.3.9-1.1,0-2,1-2,2.1v2h104v-2c0-1.1-.9-2-2-2.1Z"/>
            <polygon class="cls-26" points="150.6 151.9 150.6 188.8 204.7 198.2 204.7 151.9 150.6 151.9"/>
          </g>
          <g>
            <path class="cls-1" d="M69.2,23.2h216.9c3.3,0,5.9,2.7,5.9,5.9v143.9c0,3.3-2.7,5.9-5.9,5.9H69.1c-3.3,0-5.9-2.7-5.9-5.9V29.1c0-3.3,2.7-5.9,5.9-5.9Z"/>
            <rect class="cls-3" x="70.8" y="30.8" width="213.6" height="121"/>
          </g>
          <polygon class="cls-23" points="177.7 131.4 177.5 131.4 177.5 131.4 177.7 131.4"/>
        </g>
        <g>
          <rect class="cls-24" x="85.5" y="44.7" width="180.4" height="59.2"/>
          <rect class="cls-24" x="85.5" y="112.4" width="57.6" height="26.8"/>
          <rect class="cls-24" x="146.9" y="112.4" width="57.6" height="26.8"/>
          <rect class="cls-24" x="208.4" y="112.4" width="57.6" height="26.8"/>
        </g>
        <path class="cls-2" d="M286.1,23.2h-27v26.7c0,3.6,3,6.6,6.6,6.6h26.3v-27.4c0-3.3-2.6-5.9-5.9-5.9Z"/>
        <path class="cls-18" d="M261.7,0h39.3C304.7,0,307.6,3,307.6,6.6v39.3c0,3.7-3,6.6-6.6,6.6h-39.3c-3.7,0-6.6-3-6.6-6.6V6.6C255.1,3,258.1,0,261.7,0Z"/>
        <path class="cls-6" d="M294.4,43h-.3v-4.4c0-2-.8-3.8-2.2-5.2l-6-6,6-6c1.4-1.4,2.2-3.3,2.2-5.2v-4.4h.3c.6,0,1-.5,1-1s-.5-1-1-1h-20c-.6,0-1,.5-1,1s.5,1,1,1h.3v4.4c0,2,.8,3.8,2.2,5.2l6,6-6,6c-1.4,1.4-2.2,3.3-2.2,5.2v4.4h-.3c-.6,0-1,.5-1,1s.5,1,1,1h20c.6,0,1-.5,1-1s-.5-1-1-1Z"/>
        <g>
          <g>
            <path class="cls-13" d="M291.1,9.7h-19.4v5.4c0,2,.8,3.8,2.2,5.2l6,6-6,6c-1.4,1.4-2.2,3.3-2.2,5.2v5.4h19.4v-5.4c0-2-.8-3.8-2.2-5.2l-6-6,6-6c1.4-1.4,2.2-3.3,2.2-5.2v-5.4Z"/>
            <path class="cls-27" d="M291.4,10.7h-20c-.6,0-1-.5-1-1h0c0-.6.5-1,1-1h20c.6,0,1,.5,1,1h0c0,.6-.5,1-1,1Z"/>
            <path class="cls-27" d="M291.4,43.9h-20c-.6,0-1-.5-1-1h0c0-.6.5-1,1-1h20c.6,0,1,.5,1,1h0c0,.6-.5,1-1,1Z"/>
          </g>
          <path class="cls-19" d="M286.9,32.9l-5.1-4.3v-3.3l6-6h-12.8l6,6v3.3l-5.1,4.3c-1.3,1-2,2.6-2,4.2v3.1h15v-3.1c0-1.6-.7-3.2-2-4.2Z"/>
          <path class="cls-12" d="M287.5,11.7v2.4c0,1.8-.3,3.5-1.3,5.2-.7,1.2-3.3,4.7-3.3,4.7l.2.2s4.1-3.7,5.2-5.1c1.4-1.7,1.8-2.7,1.8-4.3v-3.1h-2.5Z"/>
          <path class="cls-12" d="M275.1,40.4v-2.4c0-1.8.3-3.5,1.3-5.2.7-1.2,3.3-4.7,3.3-4.7l-.2-.2s-4.1,3.7-5.2,5.1c-1.4,1.7-1.8,2.7-1.8,4.3v3.1h2.5Z"/>
        </g>
        <path class="cls-14" d="M66.2,128.3v-14.9c0-3.7-.7-7.2-2-10.5-.2-.5-.4-1-.6-1.5-.1-.3-.2-.5-.4-.7v27.6h3Z"/>
        <path class="cls-11" d="M151.2,233.5c0,.8-17.2,1.5-38.4,1.5s-38.4-.7-38.4-1.5,17.2-1.5,38.4-1.5,38.4.7,38.4,1.5Z"/>
        <g>
          <g>
            <path class="cls-12" d="M89.1,169.8h-6.6c-.8-3.7-2.1-7.2-4-10.3l5-5c.6-.6.8-1.6.3-2.4-2.8-4.1-6.2-7.8-10.1-10.8-.7-.6-1.8-.5-2.5.2l-5.2,5.2c-3-1.8-6.2-3.2-9.6-4v-8.1c0-.9-.6-1.7-1.5-1.9-2.9-.6-5.9-.9-9-.9s-3.9.2-5.9.4c-.9.1-1.6.9-1.6,1.9v8.6c-3.1.8-6.1,2-8.8,3.6l-6.5-6.5c-.6-.6-1.6-.8-2.4-.3-4.1,2.8-7.8,6.2-10.8,10.1-.6.7-.5,1.8.2,2.5l6.7,6.7c-1.5,2.6-2.8,5.2-3.7,8.1H3.2c-.9,0-1.7.6-1.9,1.5-.6,2.9-.9,5.9-.9,9s.2,4,.4,5.9c.1.9.9,1.6,1.9,1.6h9.6c.6,2.9,1.6,5.7,2.9,8.4l-6.9,6.9c-.6.6-.8,1.6-.3,2.4,2.8,4.1,6.2,7.8,10.1,10.8.7.6,1.8.5,2.5-.2l6.4-6.4c2.6,1.8,5.4,3.2,8.5,4.3v8.9c0,.9.6,1.7,1.5,1.9,2.9.6,5.9.9,9,.9s3.9-.2,5.9-.4c.9-.1,1.6-.9,1.6-1.9v-7.9c3.5-.6,6.8-1.7,9.9-3.2l5.5,5.4c.6.6,1.6.8,2.4.3,4.1-2.8,7.8-6.2,10.8-10.1.6-.7.5-1.8-.2-2.5l-4.9-4.9c2.1-3,3.7-6.3,4.8-9.9h6.9c.9,0,1.7-.6,1.9-1.5.6-2.9.9-5.9.9-9s-.2-3.9-.4-5.8c-.1-.9-.9-1.6-1.9-1.6ZM47.4,192.2c-9.2,0-16.5-8.4-14.7-18,1.1-5.6,5.6-10.2,11.2-11.5,9.7-2.2,18.4,5.2,18.4,14.5s-6.7,15-15,15Z"/>
            <path class="cls-21" d="M47.4,153.6c-13.1,0-23.7,10.6-23.7,23.7s10.6,23.7,23.7,23.7,23.7-10.6,23.7-23.7-10.6-23.7-23.7-23.7ZM47.4,192.2c-8.3,0-14.9-6.7-14.9-15s6.7-14.9,14.9-14.9,15,6.7,15,14.9-6.7,15-15,15Z"/>
          </g>
          <circle class="cls-12" cx="47.4" cy="177.3" r="18.4"/>
          <circle class="cls-21" cx="47.4" cy="177.3" r="10.8"/>
        </g>
        <path class="cls-14" d="M311.9,148.6v-11.7c0-2.1-.3-4.1-.8-6-.2-.6-.4-1.2-.6-1.8-.3-.7-.5-1.4-.9-2-2.4-5-6.6-9-11.7-11.1-.3-.1-.7-.3-1-.4-1.6-.6-3.2-1-4.9-1.2v34.3h19.9Z"/>
        <path class="cls-2" d="M292.1,177.2v-22.5h-23.6v-10.8c0-5.8,2.3-11,6.1-14.8,1.2-1.2,2.5-2.2,4-3.1.9-.5,1.8-1,2.7-1.4,2.5-1.1,5.3-1.6,8.1-1.6s1.8,0,2.7.2v-9.8c-.9,0-1.8-.1-2.7-.1-13.2,0-24.5,8.4-28.8,20.1-1.2,3.3-1.9,6.8-1.9,10.5v10.8h-7.6c-2.9,0-5.4,1.9-6.2,4.6,0,.2-.1.4-.2.6,0,.4-.1.9-.1,1.3v21.4h42c3,0,5.4-2.4,5.4-5.4Z"/>
        <g>
          <rect class="cls-5" x="268.1" y="165.3" width="33.5" height="48.3"/>
          <path class="cls-22" d="M263.9,146.7c0-11.6,9.4-20.9,20.9-20.9s20.9,9.4,20.9,20.9v11.2h9.7v-11.2c0-16.9-13.8-30.7-30.7-30.7s-30.7,13.8-30.7,30.7v10.8h9.7v-10.8Z"/>
          <path class="cls-27" d="M323.1,157.5h-76.5c-3.6,0-6.5,2.9-6.5,6.5v55.2c0,3.6,2.9,6.5,6.5,6.5h76.5c3.6,0,6.5-2.9,6.5-6.5v-55.2c0-3.6-2.9-6.5-6.5-6.5ZM284.8,208.2h0c-3.8,0-6.8-3.3-6.3-7.1l1.4-11.7c-2.7-1.6-4.5-4.6-4.5-7.9,0-4.9,4-9.1,8.9-9.4,5.4-.3,9.8,4,9.8,9.3s-1.8,6.3-4.5,8l1.4,11.7c.5,3.8-2.5,7.1-6.3,7.1Z"/>
          <path class="cls-17" d="M307.7,146.7c0-12.6-10.2-22.8-22.8-22.8s-22.8,10.2-22.8,22.8v10.8h1.9v-10.8c0-11.6,9.4-20.9,20.9-20.9s20.9,9.4,20.9,20.9v10.8h1.9v-10.8Z"/>
          <path class="cls-12" d="M284.8,116c-16.9,0-30.7,13.8-30.7,30.7v10.8h1.9v-10.8c0-15.9,12.9-28.8,28.8-28.8s28.8,12.9,28.8,28.8v10.8h1.9v-10.8c0-16.9-13.8-30.7-30.7-30.7Z"/>
          <path class="cls-14" d="M280,189.4l-1.4,11.7c-.5,3.8,2.5,7.1,6.3,7.1h0c3.8,0,6.8-3.3,6.3-7.1l-1.4-11.7c2.7-1.6,4.5-4.6,4.5-8,0-5.3-4.4-9.6-9.8-9.3-4.9.2-8.9,4.4-8.9,9.4,0,3.4,1.8,6.3,4.5,7.9Z"/>
          <path class="cls-7" d="M329.6,219.2v-55.2c0-3.6-2.9-6.5-6.5-6.5h-76.5c-3.6,0-6.5,2.9-6.5,6.5v3.9s.3-3.7,1.9-5.5c1.6-1.9,23.2-1.7,39.2-1.4,16,.3,31.8-.4,35.7-.2,3.8.2,8,.7,8.5,4.2.5,3.5,1.1,27,.6,36.9-.5,9.9-.2,12.1-.3,14.8,0,1.7-.6,5.8-5,6.1-4.7.3-23.7,1.1-29.6,1.3-5.9.2-19,.3-23,1-.8.1-3.8.2-5.8.7h60.8c3.6,0,6.5-2.9,6.5-6.5Z"/>
        </g>
        <g>
          <rect class="cls-2" x="142.9" y="66.8" width="79.6" height="60.4" rx="7.2" ry="7.2"/>
          <rect class="cls-18" x="139.2" y="62.5" width="79.6" height="60.4" rx="7.2" ry="7.2"/>
          <g>
            <g>
              <g>
                <rect class="cls-12" x="159.2" y="77.3" width="40" height="8.2" rx="1.1" ry="1.1"/>
                <g>
                  <path class="cls-20" d="M162.6,82.8c-.4,0-.8-.4-.8-.8s.3-.8.8-.8.8.3.8.8-.3.8-.8.8h0Z"/>
                  <path class="cls-20" d="M165.3,82.8c-.4,0-.8-.4-.8-.8s.3-.8.8-.8.8.3.8.8-.3.8-.8.8h0Z"/>
                  <path class="cls-20" d="M168.1,82.8c-.4,0-.8-.4-.8-.8s.3-.8.8-.8.8.3.8.8-.3.8-.8.8h0Z"/>
                  <path class="cls-20" d="M170.8,82.8c-.4,0-.8-.4-.8-.8s.3-.8.8-.8.8.3.8.8-.3.8-.8.8h0Z"/>
                  <path class="cls-20" d="M173.5,82.8c-.4,0-.8-.4-.8-.8s.3-.8.8-.8.8.3.8.8-.3.8-.8.8h0Z"/>
                  <path class="cls-20" d="M176.2,82.8c-.4,0-.8-.4-.8-.8s.3-.8.8-.8.8.3.8.8-.3.8-.8.8h0Z"/>
                </g>
              </g>
              <g>
                <rect class="cls-12" x="159.2" y="88.4" width="40" height="8.2" rx="1.1" ry="1.1"/>
                <g>
                  <path class="cls-20" d="M162.6,93.3c-.4,0-.8-.4-.8-.8s.3-.8.8-.8.8.3.8.8-.3.8-.8.8h0Z"/>
                  <path class="cls-20" d="M165.3,93.3c-.4,0-.8-.4-.8-.8s.3-.8.8-.8.8.3.8.8-.3.8-.8.8h0Z"/>
                  <path class="cls-20" d="M168.1,93.3c-.4,0-.8-.4-.8-.8s.3-.8.8-.8.8.3.8.8-.3.8-.8.8h0Z"/>
                  <path class="cls-20" d="M170.8,93.3c-.4,0-.8-.4-.8-.8s.3-.8.8-.8.8.3.8.8-.3.8-.8.8h0Z"/>
                  <path class="cls-20" d="M173.5,93.3c-.4,0-.8-.4-.8-.8s.3-.8.8-.8.8.3.8.8-.3.8-.8.8h0Z"/>
                  <path class="cls-20" d="M176.2,93.3c-.4,0-.8-.4-.8-.8s.3-.8.8-.8.8.3.8.8-.3.8-.8.8h0Z"/>
                </g>
              </g>
              <g>
                <path class="cls-27" d="M185,111.4h-11.4c-2.3,0-4.1-1.8-4.1-4.1h0c0-2.3,1.8-4.1,4.1-4.1h11.4c2.3,0,4.1,1.8,4.1,4.1h0c0,2.3-1.8,4.1-4.1,4.1Z"/>
                <path class="cls-10" d="M180.1,105.4c-.5,0-.9.4-.9.9v.5h-1.5c0,0-.1,0-.1.1v2.1c0,0,0,.1.1.1h2.3c0,0,.1,0,.1-.1v-2.1c0,0,0-.1-.1-.1h-.5v-.5c0-.3.3-.6.6-.6s.6.3.6.6h0c0,.1.3.1.3.1h0c0-.6-.4-1-.9-1ZM178.9,108.1v.3h0c0,0,0,0,0,0h0s0,0,0,0h0c0,0-.3.3-.3.3v-.7c-.2,0-.3-.2-.3-.3s.2-.4.4-.4.4.2.4.4-.1.3-.3.3Z"/>
              </g>
            </g>
            <g>
              <g>
                <rect class="cls-8" x="192.3" y="79.2" width="4.8" height="4.3" rx="1.3" ry="1.3"/>
                <path class="cls-12" d="M194.7,80.5c-.9,0-1.4.5-1.7.9.3.5.7.9,1.7.9s1.5-.5,1.7-.9c-.2-.4-.7-.9-1.7-.9Z"/>
                <path class="cls-8" d="M195.3,81.4c0,.3-.2.5-.5.5s-.5-.2-.5-.5.2-.5.5-.5.5.2.5.5Z"/>
              </g>
              <g>
                <rect class="cls-8" x="192.3" y="90.4" width="4.8" height="4.3" rx="1.3" ry="1.3"/>
                <path class="cls-12" d="M194.7,91.6c-.9,0-1.4.5-1.7.9.3.5.7.9,1.7.9s1.5-.5,1.7-.9c-.2-.4-.7-.9-1.7-.9Z"/>
                <path class="cls-8" d="M195.3,92.5c0,.3-.2.5-.5.5s-.5-.2-.5-.5.2-.5.5-.5.5.2.5.5Z"/>
              </g>
            </g>
          </g>
        </g>
        <g>
          <polygon class="cls-15" points="104 156.5 104.5 158.7 104.6 160.5 104.6 160.5 103.9 160.4 103.7 159.9 103.6 159.1 103.2 158.3 103.1 158.5 103.1 159.9 104.3 161.7 103.3 161.9 101.2 161.4 100.1 159 100 158.2 100 154.6 100 151.7 102.8 151.6 102.8 154.4 104 156.5"/>
          <path class="cls-1" d="M125.9,233.5h-.1v.7h-3.1v-.9c0,0,.2,0,.2,0h0s0-3.2,0-3.2h3.2v.4c0,0,1.6,1.1,1.6,1.1l4.7,1.4s.4.2.4.4v.4s0,.2,0,.2c0,0,0,0-.4.2h-5.4l-.3-.4-.3-.2h-.3Z"/>
          <g>
            <polygon class="cls-4" points="103.4 234.1 104.5 234.1 104.5 233.5 103.4 233.5 103.4 234.1"/>
            <path class="cls-1" d="M104.4,233.5v.7h3.5v-.9c0,0-.2,0-.2,0h0s0-3.2,0-3.2h-3.2v.4c0,0-1.4,1.2-1.4,1.2l-1.8,1.3s-.4.2-.4.4v.4s0,.2,0,.2c0,0,0,0,.4.2h2l.3-.4.3-.2h.4Z"/>
          </g>
          <path class="cls-12" d="M111.3,116.7s1.7,2.3.5,4.5c-1.2,2.3-6.1,12.1-7.1,15.7-1,3.5-1.2,16.5-1.2,16.5l-4.2.2s-.4-15.2,0-18.2c.4-3.5,5-17.9,6.5-19.5,1.9-2,4.9-.5,5.5.8Z"/>
          <g>
            <rect class="cls-15" x="114.7" y="108.1" width="4.5" height="7.1" transform="translate(-7.1 8) rotate(-3.8)"/>
            <path class="cls-15" d="M121.6,104.5c.5,3.1-1.2,6-3.9,6.5-2.7.5-5.3-1.7-5.8-4.8,0-.4-1.3-6.1-1.3-6.5l1.7-2.1,5.5-.9c.8-.1,1.6,0,2.1.6h0c.5.5.9,1.1.9,1.8.2,1.8.5,5.2.5,5.5Z"/>
            <path class="cls-25" d="M120.5,100.9c-.2.1-.3.3-.3.3,0,0,.3,1.9-.1,2-.1,0-.5-.4-.5-.4-.3,0-.4,0-.5.4,0,.2,0,.5,0,.7.3.6.3,1.1.3,1.6-.1,1.2,0,1.8-.6,2.8-.2.4-.8.7-1.4.9-1,.3-1.9.5-2.7.4-.8,0-1.9.2-2.8-1.7-.3-.5,0-1.3-1-1.9-.7-.6-1.1-2-1.2-3.3-.5-1.3-.2-3.3.7-3.7.8-.3.1-1.8,1.7-2.8.7-.4,1.3-.2,2.1-.3,0,0,0,0,.1,0,0,0,.2,0,.3,0,.5-.2,1-.7,2-1.1,1.3-.5,3.2.3,4.2,1.8.3.5.4.9.4,1.3.5.6.9,1.4.3,2.2-.5.7-.7.5-.9.6Z"/>
          </g>
          <path class="cls-16" d="M119.1,112.9l8.4.5c3.3.3,2.8,2.6,3,5.2l-.3,17,1.8,15.1-.3,1.8-.5.9v1.5c0,0-22.9,0-22.9,0v-1.5s-.6-1-.6-1v-1.9s-.4-10.3-.4-10.3l-.8-10.7-1.7-8.9c-.1-1.9.2-5.2,2.9-6.2,1.4-.5,7.1-1.4,7.1-1.4h2.3s2.2-.2,2.2-.2Z"/>
          <polygon class="cls-12" points="119.7 113 119.3 111.8 119.2 111.8 117.1 111.9 114.7 111.8 114.6 111.8 114.1 113.2 117.2 113.1 119.7 113"/>
          <polygon class="cls-28" points="105.9 198.6 103.7 230.1 108.7 230.4 113.9 199.3 119.5 164.9 120.1 165.1 121.2 198.5 122.2 230.6 127.6 230.6 129 199.4 131.4 161.6 131.4 157.7 131.4 153.8 108 153.8 107.9 157.5 105.9 198.6"/>
          <polygon class="cls-15" points="153.6 86.5 153 84.5 154.1 83.4 153.8 82.8 152.2 84.2 150.9 85.2 150.9 85.3 151 85.1 151.4 84.7 151.8 84.4 151.8 84 151.8 84 150.3 84.7 149.2 86 148.9 87.6 146.7 92.4 149.8 93.8 151.5 89.2 152.8 87.9 153.6 86.5"/>
          <path class="cls-12" d="M125.3,117.9s-.9-2.5,1.1-4.1c2-1.6,10-5.6,12.6-8.2,2.7-2.6,8-15.9,8-15.9l4.4,1.9s-6.2,15.9-8.1,18.1c-1.9,2.4-11.4,10.4-13.4,11.2-2.5,1-4.6-1.6-4.7-3Z"/>
          <path class="cls-9" d="M103.7,152.9c0-.1.2-12.5,1.2-15.9,1-3.4,5.6-12.8,7.1-15.6,1.2-2.3-.4-4.5-.6-4.8-.4-.8-1.6-1.6-3-1.8-.8-.1-1.9,0-2.9,1-1.5,1.6-6.2,16-6.6,19.6-.3,2.9,0,17.1,0,17.7l4.6-.2Z"/>
          <path class="cls-9" d="M151.3,92.4c-.2.6-5.9,15.1-7.8,17.4-1.9,2.4-11.4,10.4-13.4,11.3-.4.2-.9.3-1.2.3-.7,0-1.3-.3-1.8-.5-1.2-.8-1.9-2-1.9-2.9-.1-.3-.8-2.7,1.1-4.3.8-.6,2.4-1.5,4.3-2.6,3-1.8,6.7-3.9,8.4-5.6,2.6-2.5,7.6-14.9,7.6-15l4.8,2Z"/>
          <path class="cls-9" d="M132.2,138.1c-1.4-4.7-1.6-10.2-1.6-13.2v-1.3s0-.8,0-.8h0v-4.2c0-.4,0-.7,0-1.1,0-2.2,0-4.1-3.2-4.4l-8.4-.5h0s-2.2.2-2.2.2h-2.4c-.2,0-5.7.9-7.2,1.4-2.9,1.1-3.1,4.5-3,6.4l1.7,8.8.2,2.9c.1,8.6-1.2,23.2-1.2,23.2,0,0,1.8,1.5,4.3,1.6,2.5,0,7.4-.4,15.6-.4,6.1,0,10-1.1,11.1-1.8,1-.6-1.9-10-3.9-16.8Z"/>
        </g>
      </g>
    </g>
  </g>
</svg>