<?xml version="1.0" encoding="UTF-8"?>
<svg xmlns="http://www.w3.org/2000/svg" version="1.1" xmlns:xlink="http://www.w3.org/1999/xlink" viewBox="0 0 289.1 45.5">
  <defs>
    <style>
      .cls-1 {
        fill: url(#_무제_그라디언트_79-5);
      }

      .cls-2 {
        fill: url(#_무제_그라디언트_174-3);
      }

      .cls-3 {
        fill: url(#_무제_그라디언트_79-2);
      }

      .cls-4 {
        fill: url(#_무제_그라디언트_79);
      }

      .cls-5 {
        fill: #076b33;
      }

      .cls-6 {
        fill: url(#_무제_그라디언트_174-2);
      }

      .cls-7 {
        fill: url(#_무제_그라디언트_79-4);
      }

      .cls-8 {
        fill: url(#_무제_그라디언트_120);
      }

      .cls-9 {
        fill: url(#_무제_그라디언트_174);
      }

      .cls-10 {
        fill: url(#_무제_그라디언트_79-3);
      }

      .cls-11 {
        fill: url(#_무제_그라디언트_79-6);
      }

      .cls-12 {
        fill: url(#_무제_그라디언트_529);
      }

      .cls-13 {
        fill: url(#_무제_그라디언트_529-2);
      }

      .cls-14 {
        fill: #ff8600;
      }

      .cls-15 {
        fill: #323232;
      }

      .cls-16 {
        fill: url(#_무제_그라디언트_529-3);
      }

      .cls-17 {
        fill: #001dba;
      }
    </style>
    <linearGradient id="_무제_그라디언트_79" data-name="무제 그라디언트 79" x1="4.5" y1="11.5" x2="187.1" y2="49.2" gradientUnits="userSpaceOnUse">
      <stop offset="0" stop-color="#0040ff"/>
      <stop offset=".5" stop-color="#1b7ddf"/>
      <stop offset="1" stop-color="#6b82cb"/>
    </linearGradient>
    <linearGradient id="_무제_그라디언트_79-2" data-name="무제 그라디언트 79" x1="15.2" y1="8.2" x2="144.9" y2="35" xlink:href="#_무제_그라디언트_79"/>
    <linearGradient id="_무제_그라디언트_79-3" data-name="무제 그라디언트 79" x1="12.6" y1="2.6" x2="142.3" y2="29.4" xlink:href="#_무제_그라디언트_79"/>
    <linearGradient id="_무제_그라디언트_79-4" data-name="무제 그라디언트 79" x1="13.8" y1="-3.1" x2="143.5" y2="23.7" xlink:href="#_무제_그라디언트_79"/>
    <linearGradient id="_무제_그라디언트_79-5" data-name="무제 그라디언트 79" x1="14.8" y1="-8.4" x2="144.5" y2="18.5" xlink:href="#_무제_그라디언트_79"/>
    <linearGradient id="_무제_그라디언트_174" data-name="무제 그라디언트 174" x1="147.7" y1="-4" x2="203.5" y2="30.4" gradientUnits="userSpaceOnUse">
      <stop offset="0" stop-color="#058ad5"/>
      <stop offset="1" stop-color="#01c668"/>
    </linearGradient>
    <linearGradient id="_무제_그라디언트_174-2" data-name="무제 그라디언트 174" x1="141.5" y1="9.2" x2="194.8" y2="42.1" xlink:href="#_무제_그라디언트_174"/>
    <linearGradient id="_무제_그라디언트_174-3" data-name="무제 그라디언트 174" x1="152.6" y1="-11.9" x2="208.4" y2="22.5" xlink:href="#_무제_그라디언트_174"/>
    <linearGradient id="_무제_그라디언트_529" data-name="무제 그라디언트 529" x1="218" y1=".6" x2="259.8" y2="28.4" gradientUnits="userSpaceOnUse">
      <stop offset="0" stop-color="#e79e47"/>
      <stop offset="1" stop-color="#c50654"/>
    </linearGradient>
    <linearGradient id="_무제_그라디언트_529-2" data-name="무제 그라디언트 529" x1="215.6" y1="4.8" x2="257" y2="32.2" xlink:href="#_무제_그라디언트_529"/>
    <linearGradient id="_무제_그라디언트_529-3" data-name="무제 그라디언트 529" x1="223.4" y1="-7.5" x2="265.2" y2="20.2" xlink:href="#_무제_그라디언트_529"/>
    <linearGradient id="_무제_그라디언트_79-6" data-name="무제 그라디언트 79" x1="0" y1="28.1" x2="77.4" y2="28.1" xlink:href="#_무제_그라디언트_79"/>
    <linearGradient id="_무제_그라디언트_120" data-name="무제 그라디언트 120" x1="204.9" y1="30.9" x2="284" y2="30.9" gradientUnits="userSpaceOnUse">
      <stop offset="0" stop-color="#eebc80"/>
      <stop offset="1" stop-color="#c50654"/>
    </linearGradient>
  </defs>
  <!-- Generator: Adobe Illustrator 28.7.1, SVG Export Plug-In . SVG Version: 1.2.0 Build 142)  -->
  <g>
    <g id="_레이어_1" data-name="레이어_1">
      <path class="cls-15" d="M89.4,45.5c-.7,0-1.3-.1-2-.4-.6-.3-1.2-.6-1.6-1.1-.5-.5-.9-1-1.1-1.7-.3-.6-.4-1.4-.4-2.2s.1-1.5.4-2.1c.3-.6.6-1.2,1.1-1.7.5-.5,1-.8,1.6-1.1.6-.3,1.3-.4,2-.4s1.7.2,2.5.6c.8.4,1.4,1,1.9,1.8l-.9.7c-.4-.6-.8-1.1-1.4-1.4-.6-.4-1.3-.6-2-.6s-1,.1-1.5.3c-.5.2-.9.5-1.2.9-.3.4-.6.8-.8,1.3-.2.5-.3,1.1-.3,1.7s.1,1.2.3,1.7c.2.5.5,1,.8,1.3.3.4.8.7,1.2.9.5.2.9.3,1.4.3s1,0,1.5-.2c.4-.2.8-.4,1.1-.7.3-.3.5-.7.7-1.1.2-.4.2-.9.2-1.4h-3.7v-1.1h4.9v.6c0,.7-.1,1.4-.3,2-.2.6-.5,1.2-.9,1.6-.4.4-.9.8-1.5,1-.6.2-1.3.4-2,.4Z"/>
      <path class="cls-15" d="M95.8,39.4h6.5v1.1h-6.5v-1.1Z"/>
      <path class="cls-15" d="M104.2,35.1h5c.4,0,.8,0,1.2.2.4.1.7.3,1,.5.3.2.5.5.7.8.2.3.3.8.3,1.2s0,.7-.2,1c-.1.3-.2.5-.4.7-.2.2-.4.4-.7.5-.3.1-.6.3-.9.3l2.6,4.8h-1.4l-2.4-4.5-3.5.8v3.6h-1.3v-10.1ZM111,37.9c0-.3,0-.5-.2-.7-.1-.2-.2-.4-.4-.5-.2-.1-.4-.2-.6-.3-.3,0-.5-.1-.8-.1h-3.5v4.2l3.3-.7c.8-.2,1.3-.4,1.7-.7.3-.3.5-.6.5-1.1Z"/>
      <path class="cls-15" d="M115.2,35.1v10.1h-1.3v-10.1h1.3Z"/>
      <path class="cls-15" d="M117.4,43c.2.2.5.4.8.6.3.2.6.3.9.4.3.1.6.2,1,.3.3,0,.6,0,.9,0,.7,0,1.2-.2,1.7-.4.4-.3.6-.7.6-1.3s0-.5-.2-.7c-.1-.2-.3-.4-.5-.5-.2-.1-.5-.3-.8-.4-.3-.1-.6-.2-1-.3-.7-.2-1.2-.4-1.7-.6-.5-.2-.9-.4-1.2-.7-.3-.2-.6-.5-.7-.8-.2-.3-.2-.7-.2-1.1s0-.8.3-1.2c.2-.3.4-.6.8-.8.3-.2.7-.4,1.1-.5.4-.1.9-.2,1.4-.2s1.2.1,1.8.3c.6.2,1.2.5,1.7.9l-.5.9c-.2-.1-.4-.3-.6-.4-.2-.1-.5-.2-.7-.3-.3-.1-.5-.2-.8-.2-.3,0-.5,0-.8-.1-.3,0-.6,0-.9,0-.3,0-.5.1-.8.3-.2.1-.4.3-.5.5-.1.2-.2.5-.2.8s0,.5.1.7c0,.2.2.4.4.5.2.2.4.3.7.4.3.1.7.3,1.2.4.6.2,1.1.3,1.6.5.5.2.8.4,1.2.6.3.2.6.5.7.8.2.3.3.7.3,1s0,1-.3,1.3c-.2.4-.5.7-.8.9-.3.2-.7.4-1.2.5-.5.1-1,.2-1.5.2s-1.4-.1-2.1-.3c-.7-.2-1.3-.6-1.9-1l.6-1Z"/>
      <path class="cls-15" d="M133.1,39.5v1.1h-5.6v3.6h6v1h-7.3v-10.1h7.1v1.1h-5.8v3.3h5.6Z"/>
      <path class="cls-15" d="M138,40.1c0-.8.1-1.5.4-2.2.3-.6.6-1.2,1.1-1.7.5-.4,1-.8,1.6-1,.6-.2,1.3-.4,2-.4s1.4.1,2,.4c.6.3,1.2.6,1.6,1,.5.5.8,1,1.1,1.7.3.7.4,1.4.4,2.2s-.1,1.6-.4,2.2c-.3.7-.6,1.2-1.1,1.7-.5.5-1,.8-1.6,1.1-.6.2-1.3.4-2,.4s-1.3-.1-2-.4c-.6-.3-1.2-.6-1.6-1.1-.5-.5-.8-1-1.1-1.7-.3-.6-.4-1.4-.4-2.2ZM139.3,40.1c0,.7.1,1.3.3,1.8.2.5.5,1,.8,1.3.3.4.8.6,1.2.8.4.2.9.3,1.4.3s1,0,1.4-.3c.5-.2.9-.5,1.2-.8.3-.4.6-.8.9-1.3.2-.5.3-1.1.3-1.8s-.1-1.3-.3-1.8c-.2-.5-.5-1-.9-1.3-.4-.3-.8-.6-1.2-.8-.5-.2-.9-.3-1.4-.3s-.9,0-1.4.3c-.5.2-.9.5-1.2.8-.4.4-.7.8-.9,1.3-.2.5-.3,1.1-.3,1.8Z"/>
      <path class="cls-15" d="M149.9,35.1h1.3l5.8,8.1v-8.1h1.3v10.1h-1.3l-5.8-8.2v8.2h-1.3v-10.1Z"/>
      <path class="cls-15" d="M163,39.1h10.4v1.1h-10.4v-1.1ZM163.6,34.6h9.1v1.1h-1.8v1.5h1.8v1.1h-9.1v-1.1h1.8v-1.5h-1.8v-1.1ZM171.5,42.7v-.7h-7.9v-1.1h9.1v2.8h-7.9v.6h8v1.1h-9.3v-2.8h7.9ZM166.7,37.2h3v-1.5h-3v1.5Z"/>
      <path class="cls-15" d="M175.1,35.7v-1.1h5.4v3.5h-4.1v1.3h4.3v1.1h-5.5v-3.4h4.1v-1.3h-4.1ZM181.5,41.3v.3c0,.4,0,.8-.2,1.1l4.9,1.7-.5.9-5-1.8c-.4.4-1.1.8-1.8,1.1-.8.3-1.8.5-3,.7l-.5-1.1c.9-.1,1.6-.3,2.2-.4.6-.2,1.1-.3,1.5-.6.4-.2.7-.5.9-.8.2-.3.3-.6.3-1v-.3h1.3ZM181.8,40.5v-6h1.3v2.6l1.5-.5v-2.1h1.3v6.9h-1.3v-3.8l-1.5.5v2.4h-1.3Z"/>
      <path class="cls-15" d="M188.1,34.6h9.1v1.1h-1.8v2.1h1.8v1.1h-3.9v1h4.6v1.1h-10.4v-1.1h4.6v-1h-3.9v-1.1h1.8v-2.1h-1.8v-1.1ZM197.2,45.5h-9.1v-3.8h9.1v3.8ZM189.4,42.7v1.7h6.6v-1.7h-6.6ZM191.1,37.8h3v-2.1h-3v2.1Z"/>
      <path class="cls-4" d="M35.9,8.9V3.2h-4.4v15.5h4.4v-6.1h2.5v-3.7h-2.5ZM35.4,22.2c-.5-.7-1.2-1.2-2.2-1.6-1-.4-2.1-.7-3.5-.9-1.4-.2-2.9-.3-4.6-.3s-3.2,0-4.6.3c-1.4.2-2.5.5-3.5.9-1,.4-1.7,1-2.2,1.6-.5.7-.8,1.5-.8,2.4s.2,1.8.8,2.4c.5.6,1.2,1.2,2.2,1.6,1,.4,2.1.7,3.5.9,1.3.2,2.9.3,4.6.3s3.2,0,4.6-.3c1.4-.2,2.5-.5,3.5-.9,1-.4,1.7-1,2.2-1.6.5-.7.8-1.5.8-2.4s-.3-1.7-.8-2.4ZM31.3,25.3c-.3.2-.8.3-1.3.5-.6.1-1.3.2-2.1.3-.8,0-1.7,0-2.7,0s-1.9,0-2.7,0c-.8,0-1.5-.2-2.1-.3-.6-.2-1-.3-1.3-.5-.3-.2-.5-.4-.5-.7s.1-.5.5-.7c.3-.2.7-.3,1.3-.5.6-.1,1.2-.2,2.1-.3.8,0,1.7,0,2.7,0s1.9,0,2.7,0c.8,0,1.5.1,2.1.3.6.1,1,.3,1.3.5.3.2.5.5.5.7s-.2.5-.5.7ZM13.8,3.5v3.7h10.5v5.2h4.4V3.5h-14.9ZM21.6,13.8v-4.4h-4.4v4.4H3.7l-3.7,3.7h29.8v-3.7h-8.2Z"/>
      <path class="cls-3" d="M40,20.5h23.5v3.7h-9.5v3.7l-4.4,1.6v-5.3h-9.5v-3.7ZM40.8,3.8h21.9v3.7h-8.3v.8c0,1-.1,1.9-.4,2.7l9.5,3.5-2.2,3.3-9.5-3.5c-2.1,1.9-5.3,3.1-9.8,3.8l-1.7-3.5c1.8-.1,3.3-.4,4.6-.8,1.2-.4,2.2-.8,3-1.4.7-.5,1.3-1.2,1.6-1.9.3-.7.5-1.5.5-2.4v-.8h-9.1v-3.7Z"/>
      <path class="cls-10" d="M66.1,9.5c0-1,.2-1.9.6-2.7.4-.8.9-1.4,1.6-2,.7-.5,1.5-.9,2.6-1.2,1-.3,2.1-.4,3.3-.4s2.3.2,3.4.4c1,.3,1.8.7,2.6,1.2.7.6,1.2,1.2,1.6,2,.4.8.6,1.7.6,2.7s-.2,1.9-.6,2.6c-.4.8-.9,1.4-1.6,2-.7.6-1.6,1-2.6,1.3-1,.3-2.1.4-3.4.4s-2.4-.1-3.3-.4c-1-.3-1.9-.7-2.6-1.3-.7-.5-1.3-1.2-1.6-2-.4-.7-.6-1.6-.6-2.6ZM85.3,21.7v-1.3h-17.2v-3.2h21.6v7.7h-17.2v1.3h17.4v3.2h-21.9v-7.7h17.2ZM74.2,12c1,0,1.9-.2,2.6-.6.7-.4,1-1,1-1.9s-.3-1.5-1-1.9c-.7-.4-1.6-.6-2.6-.6s-1.9.2-2.6.6c-.7.4-1.1,1.1-1.1,1.9s.3,1.4,1.1,1.9c.7.4,1.5.6,2.6.6ZM89.8,3.2v12.6h-4.5V3.2h4.5Z"/>
      <path class="cls-7" d="M109.1,3.8v3.7h-5.8v7.1c0,1.5-.1,3-.4,4.3l7,5.7-2.2,3.5-6.3-5.3c-.7,1.2-1.6,2.2-2.8,3.1-1.1.9-2.5,1.6-4.2,2.2l-2-3.5c1.1-.4,2.1-.9,2.9-1.4.8-.5,1.5-1.2,2-2,.5-.8.9-1.7,1.1-2.8.2-1.1.3-2.4.3-3.9v-7.1h-5.5v-3.7h15.8ZM115.6,12.8h2.5v3.7h-2.5v10.7l-4.5,1.5V3.2h4.5v9.6Z"/>
      <path class="cls-1" d="M120.4,7.5v-3.7h14.5v14.3h-10v6.6h10.6v3.7h-15v-14.1h10v-6.8h-10ZM143.3,27.2l-4.5,1.5V3.2h4.5v24Z"/>
      <path class="cls-9" d="M177.9,3.2v25.6l4.5-1.5V3.2h-4.5ZM169.1,11.7c.3-.7.5-1.6.5-2.5v-.4h6.2v-3.7h-6.2v-2.8h-4.5v2.8h-5.9v3.7h5.9v.4c0,.6,0,1.2-.2,1.6-.2.5-.5.9-.9,1.2-.5.4-1.2.7-2,1-.9.3-2.1.5-3.6.7l1.6,3.2c3-.4,5.3-1.2,6.9-2.3l7.8,2.5,1.9-3.1-7.5-2.3Z"/>
      <polygon class="cls-6" points="176.2 18.4 176.2 22.2 169.3 22.2 169.3 27.2 164.8 28.8 164.8 22.2 142.7 22.2 142.7 18.4 176.2 18.4"/>
      <path class="cls-2" d="M185.4,10c0-1,.2-1.9.6-2.8.3-.8.9-1.5,1.6-2.1.7-.6,1.5-1,2.4-1.4,1-.3,2-.5,3.2-.5,2,0,3.6.4,4.9,1.3,1.3.9,2.2,2,2.6,3.5l3.8-.9v-3.8h4.5v13.8h-4.5v-6.1l-3.8.9c-.4,1.5-1.3,2.8-2.6,3.6-1.3.9-3,1.3-5,1.3s-2.3-.2-3.2-.5c-1-.3-1.8-.8-2.4-1.4-.7-.6-1.2-1.3-1.6-2.1-.4-.8-.6-1.7-.6-2.8ZM192,18.3v1.8h12.7v-1.8h4.5v11h-21.6v-11h4.5ZM193.3,13c1,0,1.8-.3,2.4-.8.6-.6.9-1.3.9-2.2s-.3-1.7-.9-2.2c-.7-.6-1.5-.8-2.4-.8s-1.8.3-2.4.8c-.7.6-1,1.3-1,2.2s.3,1.6,1,2.2c.6.6,1.4.8,2.4.8ZM204.7,25.7v-1.8h-12.7v1.8h12.7Z"/>
      <path class="cls-12" d="M238.9,3.2v25.6l4.5-1.5V3.2h-4.5Z"/>
      <polygon class="cls-13" points="235 4 235 26.9 230.6 28.5 230.6 7.7 208.5 7.7 208.5 4 235 4"/>
      <path class="cls-16" d="M246.5,10c0-1,.2-1.9.6-2.8.3-.8.9-1.5,1.6-2.1.7-.6,1.5-1,2.4-1.4,1-.3,2-.5,3.2-.5,2,0,3.6.4,4.9,1.3,1.3.9,2.2,2,2.6,3.5l3.8-.9v-3.8h4.5v13.8h-4.5v-6.1l-3.8.9c-.4,1.5-1.3,2.8-2.6,3.6-1.3.9-3,1.3-5,1.3s-2.3-.2-3.2-.5c-1-.3-1.8-.8-2.4-1.4-.7-.6-1.2-1.3-1.6-2.1-.4-.8-.6-1.7-.6-2.8ZM253,18.3v1.8h12.7v-1.8h4.5v11h-21.6v-11h4.5ZM254.3,13c1,0,1.8-.3,2.4-.8.6-.6.9-1.3.9-2.2s-.3-1.7-.9-2.2c-.7-.6-1.5-.8-2.4-.8s-1.8.3-2.4.8c-.7.6-1,1.3-1,2.2s.3,1.6,1,2.2c.6.6,1.4.8,2.4.8ZM265.7,25.7v-1.8h-12.7v1.8h12.7Z"/>
      <path class="cls-5" d="M206.5,4h2.6v3.7h-2.6c-1,0-1.9-.8-1.9-1.9h0c0-1,.8-1.9,1.9-1.9Z"/>
      <path class="cls-17" d="M140.7,18.4h2.6v3.7h-2.6c-1,0-1.9-.8-1.9-1.9h0c0-1,.8-1.9,1.9-1.9Z"/>
      <path class="cls-11" d="M77.4,40.5c0,1-.8,1.9-1.8,1.9H0v-1.8H0v-23l3.7-3.7v24.9h71.9c1,0,1.8.8,1.8,1.8Z"/>
      <path class="cls-8" d="M284,19.3v19.4l-3.7,3.7h-73.6c-1,0-1.8-.8-1.8-1.8s.8-1.8,1.8-1.8h73.6v-19.4h3.7Z"/>
      <path class="cls-14" d="M282.6.4l1,3.1c.3.9,1,1.6,1.9,1.9l3.1,1c.5.2.5.8,0,1l-3.1,1c-.9.3-1.6,1-1.9,1.9l-1,3.1c-.2.5-.8.5-1,0l-1-3.1c-.3-.9-1-1.6-1.9-1.9l-3.1-1c-.5-.2-.5-.8,0-1l3.1-1c.9-.3,1.6-1,1.9-1.9l1-3.1c.2-.5.8-.5,1,0Z"/>
    </g>
  </g>
</svg>